<svg width="42" height="42" viewBox="0 0 42 42" fill="none" xmlns="http://www.w3.org/2000/svg">
<path d="M22.75 3.5H23.2272C28.9343 3.5 31.7879 3.5 33.7696 4.89622C34.3374 5.29625 34.8414 5.77066 35.2665 6.30506C36.75 8.17017 36.75 10.8559 36.75 16.2273V20.6819C36.75 25.8675 36.75 28.4601 35.9294 30.5308C34.6101 33.86 31.8201 36.4859 28.2828 37.7275C26.0827 38.5 23.3278 38.5 17.8181 38.5C14.6698 38.5 13.0956 38.5 11.8384 38.0587C9.81713 37.3492 8.22281 35.8486 7.46893 33.9463C7 32.763 7 31.2814 7 28.3182V21" stroke="white" stroke-width="4" stroke-linecap="round" stroke-linejoin="round"/>
<path d="M36.75 21C36.75 24.2216 34.1383 26.8333 30.9167 26.8333C29.7516 26.8333 28.378 26.6292 27.245 26.9327C26.2386 27.2023 25.4523 27.9886 25.1827 28.995C24.8792 30.128 25.0833 31.5016 25.0833 32.6667C25.0833 35.8883 22.4716 38.5 19.25 38.5" stroke="white" stroke-width="4" stroke-linecap="round" stroke-linejoin="round"/>
<path d="M19.25 10.5H5.25M12.25 3.5V17.5" stroke="white" stroke-width="4" stroke-linecap="round"/>
</svg>
