<svg width="40" height="40" viewBox="0 0 40 40" fill="none" xmlns="http://www.w3.org/2000/svg">
<path d="M30 13.3334C32.7614 13.3334 35 11.0948 35 8.33337C35 5.57195 32.7614 3.33337 30 3.33337C27.2386 3.33337 25 5.57195 25 8.33337C25 11.0948 27.2386 13.3334 30 13.3334Z" stroke="white" stroke-width="4" stroke-linecap="round" stroke-linejoin="round"/>
<path d="M10 36.6666C12.7614 36.6666 15 34.428 15 31.6666C15 28.9052 12.7614 26.6666 10 26.6666C7.23858 26.6666 5 28.9052 5 31.6666C5 34.428 7.23858 36.6666 10 36.6666Z" stroke="white" stroke-width="4" stroke-linecap="round" stroke-linejoin="round"/>
<path d="M20.0002 8.33337H14.1668C10.9452 8.33337 8.3335 10.945 8.3335 14.1667C8.3335 17.3884 10.9452 20 14.1668 20H25.8335C29.0552 20 31.6668 22.6117 31.6668 25.8334C31.6668 29.055 29.0552 31.6667 25.8335 31.6667H20.0002" stroke="white" stroke-width="4" stroke-linecap="round" stroke-linejoin="round"/>
</svg>
