<svg width="40" height="40" viewBox="0 0 40 40" fill="none" xmlns="http://www.w3.org/2000/svg">
<path d="M14.9992 36.6667L14.5815 30.8185C14.3569 27.6743 16.8471 25 19.9991 25C23.1513 25 25.6414 27.6743 25.4169 30.8185L24.9991 36.6667" stroke="black" stroke-width="2"/>
<path d="M3.91915 22.0225C3.33078 18.1937 3.0366 16.2794 3.76045 14.5823C4.48428 12.8852 6.09021 11.7241 9.30206 9.40181L11.7018 7.66671C15.6973 4.77782 17.6951 3.33337 20.0001 3.33337C22.3053 3.33337 24.303 4.77782 28.2985 7.66671L30.6983 9.40181C33.9101 11.7241 35.5161 12.8852 36.24 14.5823C36.9638 16.2794 36.6696 18.1937 36.0811 22.0225L35.5795 25.2874C34.7455 30.7149 34.3283 33.4287 32.3818 35.0477C30.4353 36.6667 27.5896 36.6667 21.8981 36.6667H18.1021C12.4107 36.6667 9.56501 36.6667 7.6185 35.0477C5.67198 33.4287 5.25495 30.7149 4.42088 25.2874L3.91915 22.0225Z" stroke="black" stroke-width="2" stroke-linejoin="round"/>
</svg>
