<svg width="44" height="44" viewBox="0 0 44 44" fill="none" xmlns="http://www.w3.org/2000/svg">
<path d="M28.4168 21.9999C28.4168 25.5438 25.544 28.4166 22.0002 28.4166C18.4563 28.4166 15.5835 25.5438 15.5835 21.9999C15.5835 18.4561 18.4563 15.5833 22.0002 15.5833C25.544 15.5833 28.4168 18.4561 28.4168 21.9999Z" stroke="white" stroke-width="4"/>
<path d="M38.52 25.8437C39.4768 25.5857 39.9553 25.4566 40.1442 25.2099C40.3332 24.9633 40.3332 24.5664 40.3332 23.7727V20.2276C40.3332 19.434 40.3332 19.037 40.1442 18.7905C39.9551 18.5437 39.4768 18.4146 38.52 18.1566C34.9443 17.1923 32.7063 13.454 33.6292 9.90168C33.883 8.92473 34.0098 8.43628 33.8886 8.14978C33.7675 7.86329 33.4199 7.66587 32.7243 7.27101L29.5623 5.47575C28.88 5.0883 28.5388 4.89457 28.2326 4.93582C27.9263 4.97707 27.5809 5.32175 26.8897 6.01109C24.2145 8.67996 19.7881 8.67985 17.1128 6.01092C16.4218 5.32157 16.0763 4.9769 15.77 4.93564C15.4638 4.89439 15.1226 5.08811 14.4401 5.47557L11.2782 7.27084C10.5828 7.66567 10.2351 7.86308 10.1139 8.14952C9.99275 8.43598 10.1196 8.92451 10.3733 9.90155C11.2957 13.454 9.05599 17.1924 5.47971 18.1567C4.52289 18.4146 4.04448 18.5437 3.85548 18.7903C3.6665 19.037 3.6665 19.434 3.6665 20.2276V23.7727C3.6665 24.5664 3.6665 24.9633 3.85548 25.2099C4.04445 25.4566 4.52287 25.5857 5.47971 25.8437C9.0554 26.808 11.2933 30.5463 10.3705 34.0986C10.1167 35.0756 9.9898 35.564 10.111 35.8505C10.2321 36.1371 10.5799 36.3345 11.2753 36.7293L14.4372 38.5246C15.1197 38.912 15.461 39.1058 15.7672 39.0646C16.0735 39.0233 16.419 38.6785 17.1098 37.9891C19.7865 35.3181 24.216 35.318 26.8928 37.989C27.5836 38.6785 27.929 39.0231 28.2354 39.0644C28.5415 39.1056 28.8829 38.9118 29.5653 38.5245L32.7272 36.7291C33.4228 36.3344 33.7706 36.1369 33.8916 35.8504C34.0128 35.5638 33.8859 35.0754 33.632 34.0984C32.7087 30.5463 34.9448 26.8082 38.52 25.8437Z" stroke="white" stroke-width="4" stroke-linecap="round"/>
</svg>
