<svg width="41" height="32" viewBox="0 0 41 32" fill="none" xmlns="http://www.w3.org/2000/svg">
<path d="M33.2208 8.30124C31.9852 5.53069 29.8529 3.2319 27.1504 1.75713C24.448 0.282361 21.3246 -0.287034 18.2588 0.136201C15.1931 0.559435 12.3541 1.95195 10.1769 4.10036C7.99967 6.24877 6.6044 9.03456 6.20484 12.0308C4.27689 12.4814 2.58564 13.6072 1.45225 15.1945C0.318871 16.7817 -0.177708 18.7199 0.0568202 20.6409C0.291348 22.5619 1.24065 24.332 2.72445 25.615C4.20825 26.898 6.12321 27.6045 8.10567 27.6004C8.64197 27.6004 9.15631 27.3925 9.53554 27.0225C9.91477 26.6524 10.1278 26.1505 10.1278 25.6271C10.1278 25.1038 9.91477 24.6018 9.53554 24.2318C9.15631 23.8617 8.64197 23.6538 8.10567 23.6538C7.03305 23.6538 6.00436 23.238 5.24591 22.4978C4.48746 21.7577 4.06136 20.7538 4.06136 19.7071C4.06136 18.6604 4.48746 17.6565 5.24591 16.9164C6.00436 16.1763 7.03305 15.7604 8.10567 15.7604C8.64197 15.7604 9.15631 15.5525 9.53554 15.1825C9.91477 14.8124 10.1278 14.3105 10.1278 13.7871C10.133 11.4532 10.9858 9.19665 12.5347 7.41834C14.0837 5.64003 16.2284 4.45512 18.588 4.07411C20.9476 3.69311 23.3691 4.14068 25.4225 5.33731C27.4759 6.53395 29.0281 8.40216 29.8034 10.61C29.9189 10.9491 30.1267 11.2512 30.4045 11.4841C30.6823 11.717 31.0197 11.8718 31.3806 11.9322C32.7275 12.1806 33.9485 12.8668 34.8446 13.8789C35.7408 14.8911 36.2592 16.1696 36.3155 17.5061C36.3718 18.8426 35.9626 20.1583 35.1546 21.2389C34.3466 22.3194 33.1874 23.101 31.8659 23.4564C31.3457 23.5873 30.9001 23.9144 30.627 24.3659C30.354 24.8174 30.2759 25.3563 30.41 25.8639C30.5441 26.3716 30.8793 26.8065 31.342 27.0729C31.8046 27.3394 32.3568 27.4156 32.877 27.2847C35.0051 26.7359 36.8916 25.5245 38.2499 23.8343C39.6082 22.1441 40.3643 20.0675 40.4031 17.9198C40.442 15.7721 39.7617 13.6708 38.4654 11.9348C37.1691 10.1988 35.3277 8.92304 33.2208 8.30124ZM21.6743 12.386C21.482 12.2064 21.2552 12.0656 21.007 11.9716C20.5147 11.7743 19.9625 11.7743 19.4702 11.9716C19.2219 12.0656 18.9952 12.2064 18.8028 12.386L12.7364 18.306C12.3556 18.6776 12.1417 19.1816 12.1417 19.7071C12.1417 20.2326 12.3556 20.7366 12.7364 21.1082C13.1172 21.4798 13.6336 21.6885 14.1721 21.6885C14.7106 21.6885 15.2271 21.4798 15.6078 21.1082L18.2164 18.5428V29.5738C18.2164 30.0971 18.4295 30.5991 18.8087 30.9691C19.1879 31.3392 19.7023 31.5471 20.2386 31.5471C20.7749 31.5471 21.2892 31.3392 21.6685 30.9691C22.0477 30.5991 22.2607 30.0971 22.2607 29.5738V18.5428L24.8693 21.1082C25.0573 21.2931 25.2809 21.4399 25.5274 21.5401C25.7738 21.6403 26.0381 21.6919 26.305 21.6919C26.572 21.6919 26.8363 21.6403 27.0827 21.5401C27.3291 21.4399 27.5528 21.2931 27.7408 21.1082C27.9303 20.9247 28.0807 20.7065 28.1834 20.466C28.2861 20.2255 28.3389 19.9676 28.3389 19.7071C28.3389 19.4466 28.2861 19.1887 28.1834 18.9482C28.0807 18.7077 27.9303 18.4895 27.7408 18.306L21.6743 12.386Z" fill="black"/>
</svg>
